<mxfile host="app.diagrams.net" modified="2024-06-25T04:54:25.651Z" agent="Mozilla/5.0 (Windows NT 10.0; Win64; x64) AppleWebKit/537.36 (KHTML, like Gecko) Chrome/126.0.0.0 Safari/537.36" etag="E9e_sKbpBPgotLMEKvEd" version="24.6.1" type="device">
  <diagram name="Page-1" id="_n38lGc2JOwTvfkFMN4q">
    <mxGraphModel dx="1050" dy="565" grid="1" gridSize="10" guides="1" tooltips="1" connect="1" arrows="1" fold="1" page="1" pageScale="1" pageWidth="827" pageHeight="1169" math="0" shadow="0">
      <root>
        <mxCell id="0" />
        <mxCell id="1" parent="0" />
        <mxCell id="SIDyf3ixZMDKv1RK9rgy-2" value="" style="shape=image;verticalLabelPosition=bottom;labelBackgroundColor=default;verticalAlign=top;aspect=fixed;imageAspect=0;image=data:image/png,iVBORw0KGgoAAAANSUhEUgAAAUAAAAFACAYAAADNkKWqAAAAAXNSR0IArs4c6QAAIABJREFUeF7tnQeUXcWR93/9ZkZIImMTzBp7BQjNeyMhi8VrL/7Wtj6cAOMlCGGCYYUxtslJIgmQhEgSiJxEDiaJYJI/sC3A2AQb2YCkeTNI5OBFsAQLGIkJr7/bum/wANLMCzd0960+hwOH6a6u+lff/7u3q7tKIU0QEAQEgYwioDJqt5gtCAgCggBCgLIIBAFBILMICAFm1vViuCAgCAgByhoQBASBzCIgBJhZ14vhgoAgIAQoa0AQEAQyi4AQYGZdL4YLAoKAEKCsAUFAEMgsAkKAmXW9GC4ICAJCgLIGBAFBILMICAFm1vViuCAgCAgByhoQBASBzCIgBJhZ14vhgoAgIAQoa0AQEAQyi4AQYGZdL4YLAoKAEKCsAUFAEMgsAkKAmXW9GC4ICAJCgLIGBAFBILMICAFm1vViuCAgCAgByhoQBASBzCIgBJhZ14vhgoAgIAQoa0AQEAQyi4AQYGZdL4YLAoKAEKCsAUFAEMgsAkKAmXW9GC4ICAJCgLIGEkegHcaWoBlYowTdGv5YgjfWg7c3gWWJKyQTZhYBIcDMuj5Zw9vg3zScA4wxxLeS2ZcCrwMPK7gkDwuS1VBmyyICQoBZ9HqCNs+HbzXA9Qo2qWJaDdzXBOOGw0dVjJOugkBVCAgBVgWXdK4GgTY4ScPJQK6acX36dpRg/5FwU43jZZgg0C8CQoCyQGJBoAgXA7+MSPgtBfhxRLJEjCDwMQJCgLIYIkegCPsDl0cpWENRwfYFeDlKuSIr2wgIAWbb/5FbvwA2a4A2oClq4QqWaji4ANdHLVvkZRMBIcBs+j02q9vgGQ1bxjZBKPiOJpgwHEzkWJogUDMCQoA1QycDP41AG3xLw8MJIfO6gvF5eCyh+WQaDxEQAvTQqWmZ1Ap/UvCNBOfvAU5fAlPHQneC88pUniAgBOiJI9M240UYvAzeBQanoMtTwM4SIEkBecenFAJ03IG2qN8OW5fgyRT1+UDBwXm4NkUdZGrHEBACdMxhtqpbhJ8CV1ignwRILHCCKyoIAbriKcv1bIWzg2MqR1qipgRILHGE7WoIAdruIUf0K4YHn80BaFtaScOZb8JJEiCxxSX26SEEaJ9PnNTIsjfAvhg+1QjjtoAXnARWlI4VASHAWOHNjvAiTARmWGrxh8BhBbjSUv1ErZQQEAJMCXjfpi2GiQ9MAgRrm4Z7OmGfMfCetUqKYokiIASYKNz+TuYCAZbRfwPYvQCP+OsNsaxSBIQAK0VK+vWLgEMEaOwoBVmpz+qAyVtDl7g2uwgIAWbX95Fa7hgB9tpu0u7vWoDFkYIhwpxBQAjQGVfZraijBGhA7VBwRB5m242waBcHAkKAcaCaQZkOE+AKb0mAJIOLFhACzKbfI7fadQKUAEnkS8IJgUKATrjJfiU9IcAVQCs4Kx+ea5TmOQJCgJ47OCnzfCLAMmYSIElq8aQ4jxBgiuD7NLWHBGjcsww4qgCX+OQrseWfCAgBymqIBAFPCbD3k/h+YO88vB0JWCLEGgSEAK1xhduK+EyA5X3BN0uwZwvMddtTon1fBIQAZT1EgoDvBFgGSQPnaTimBTojAU6EpIqAEGCq8PszeUYIsNdhbT2w66iw/rE0hxEQAnTYeTapnjECNNAvVzAxDxfa5AfRpToEhACrw0t6rwKBDBJgLxJzFewuARI3Hw0hQDf9Zp3WGSZAc3BaAiTWrcjKFBICrAwn6TUAAlkmwF5oFFxQgqMlQOLO4yIE6I6vrNZUCPBj90iAxOqV+knlhAAdcpbNqgoBfsI7HwW3SI4pwHk2+0x0k2wwsgYiQkAIcKVAzu2CPUfDmxHBLGIiRkDeACMGNKvihABX6fm3NezdAuY6nTTLEBACtMwhrqqTIAEuB0yZy885htXFQ+CoYWD0l2YJAtYR4Ksw5H3YLAeb9sBGOVijBG80wfNdsLgF3rEEO1GjDwJJEaAOU9jvbZITALs45oTFCnbNg0m1Jc0CBKwhwFbYCNg+Bztp2AzYsM+vvKnc9QqwSMPdwK9bwJQ3lGYJAkkSYA52ycMDrTBBwflBhbc1LIGhEjU6FRzXDOeoFZn4paWJQOoEuBC+1ACTNexfRYr+jxTcVoKzWuDpNAGUuUME0iBAM+8i2LQbbgPGOOaLRzTsLj/k6XotVQJsg22AmTr8dy3t7wrOAa6Wq0i1wBfdmLQI0FjwEDRuANMUHAPkorMqdknvadhDAiSx47zKCVIjwDb4j/Ln7OcjMP/vGqa1hKUN5bMiAkCrFZEmAfbqan5QNdwK/Eu1+qfZX8PsoXCYBEiS90IqBPgcbNIF92rYMkKTtYLfBhFCk6FDNpkjBLYSUTYQoNFzMazVCTco2LESvS3qIwGSFJyROAE+A6s3wWNES34fQ6egpOGq5XD8VvBWCphmckpbCLAX/FbYrxwgWd0hh5gkq5PzcJYESJLxWuIE2ApHK5gZt3kKlpbgnE44dwy8F/d8WZdvGwEaf0iAJOurcmD7EyXA52CDTngU2Hxg1SLr8UTwa3pyM/xOflUjw/QzgmwkQKNkOUByioJJrgVIFOyTh3vi85pITpQA22FCKQxUNCYMfQkwxw6mS1GbeJC3lQB7rS3CN4FbCM+butSu7IBDt4YOl5R2RdfECFCDCqJ0JkjxnRTBeRe4aCnM/DosTVEP76a2nQAN4E/BOoPgOtcCJBpeAMa1rDBBWpQIJEaA5qaHgpeA1aI0oBZZJoOvhlldcOHo8F6ptDoRcIEA+7wNmkP35wZnUF0KkHQFAb6TmmGGCfTV6S4ZXkYgMQJcCKODa2423dowx2bmleDYFnhQVkR9CLhEgMbScoDk18Co+ixPfPRjDTB+BLye+MweTpgYAbbD2JKlRKPhAQVHF2Chhz5OxCTXCNCAMg+ahsJ0c3a0imuYieA5wCRLFUzIwx02KOOyDokRYBG2Av5qMVhvqXB/aFYz/N1iPa1UzUUC7PNJ7GSARMM1y+AgCZDU/kgkRoDtMKwEz9v+S6vDrDMTW8IrVdIqRMBlAjQmSoCkQkd71i0xApwHaw8N9y1c2HhecWxGwdnNcJ+cHxx41btOgL0WtsEBOkywMXRgq63p0R28WEzNw2kSIKnOJ4kR4BTIjQ/D+FHe/63O2up7LwMuWxOO3wTMf0tbBQK+EKAxrwjDg+DI7RIg8X+5J0aABso2OFKH1+BcSllk0su8aWq+KrhE0m6t/KHwiQCNhSZAsjqcpuEo27dtPuURCZBUwduJEmD5M/iPDv6y9kL65xyc3gx3VYFxJrr6RoCuB0iA64Mf7gNb4INMLMAajUyUAMufFyZp5Rk16mvFMAUPB4pMycMfrFDIAiV8JUADrQmQDIabNPzAAqirUeHlEuw2Ep6sZlCW+iZOgM/ABk3wJ8J9FpebSbX1q264YMvwqlKmm88E2OvYVvi5OSblWICkR8EpzTBdQU+mF+lKjE+cAI0OrVDIwW+1Y5l7V7F4lmg4uRWuGJ/hBZYFAix/wTgZIFHwpIbdCvCykOA/EUiFAM30z8JXS3C5htEeOMSk4X9QhxXK7m8Bk9gyUy0rBGicagIkQ+AMBUe4FiAp7wv+KlOLsx9jUyNAo1M7bFyC/+fY0Zj+1o45P3hjFxw3Gl7L0iLLEgH2+tWk2FIwR8MGjvn6jiaYMFwyIpEqAZpFswA2aYApQTmHvWzIFBPRQjaptmYsh6u3ysi1uiwSoFkrbfC5IMHvDQ4GSF4vwc5ZD5CkToDlPcFBCn4MnJhwtuiI+G7lYhQ8o+GMhTDH9/3BrBJgn7fBXwJnA0NiXVTRCjdBkdPyMDWrARIrCLDXp+XDp+bg6UEavhitr9OTZjagS3BcAR709Vpd1gnQ8QDJPA3jshggsYoAeymqFf49B4dp2NWjz2JTBPsq4JIWeC49Oo5nZiHAENdyiq0zgcMdC5B8qOCgPFwbzwqxU6qVBNgL1QL4dgOcCmxjJ3zVa6XBLLRZQ+A0nwphCwF+ci0U4bvmNkbwg7dh9ask1RFzm2CXrARIrCZAswzmw7qN8DPCf5KsJhf3KnxCw7RB8OBw+CjuyeKWLwT4WYQdDpD8bxeMycJJBusJsHdZvQzrfggnAYc59mnRL/couL8TDh+94miku00IcNW+a4VDykXaXXKwqZUzpgCLXVK6Wl2dIcC++4MKzB7LN4Cmag22tH+XhktLMHMUvGqpjv2qVc6jd1kCundo+JFr5U3LKbZMEo18AhhFMoWGN5bBZj5nnHaOAI1nTYnNIuwZKG/OD3rzWazg9eBKyRQN17l2m6QV9lNwZSRPXv9Clmv4XguYrEJOtVYwx71mAIc69BXzlwJ8zSmgq1DWSQLstU9DQyv8Igcmw8wmVdhte9eiIcIC3KnAZPu1vhVhe+C+BBQ1iWlHu/xp1grb5uBGV26QaNirBW5MwLeJT+E0Afai1Q5bmnN2wM4eHZsx1+pmN8B0F0ogtsIYBY8ngP97OfhSM7yf+NMS4YQmQKLhFmDbCMXGJeqpQljUzLvmBQH2euVZGB0cbTefxTt55KmlGmavBjM3hzdttasIXwB+A3wlTh01tLc4tI82EBZtcHA5S/rggfqm+He9BAaNdeRrpBqcvCJAY/g8GDoYJuTg+OANauNqwLC878IcTBth6WfxYzBkHbgU2CdOHDXc1eLXD5y5D59vCGuQ2Bwg+WEhmS2OOJfPZ2R7R4C9Fr4Ig5eHNUgMEbpQia5Sx/8tB4c2w6OVDkion2qDYzScHud8wVXCk/MwLc450pLdGtadOTit+QeY9/ICHGCpbjWr5S0B9iLSCpsrOFXDLgoaa0bKooEKlmm4LSiBeFIeXrJFNZPZJwdPB2fe1otJp+dy8MNmx89Mrgqb52Htj8KiYftbGCX+fSG83eJV854Ae721EMYquFhBs0ceNIGAU5fAeWNhuQ12FWF2+dZOHOocUwiPkXjVHoLGDWHf4ITXyRafZni4AGO9At7CX5lY8W2FNYKyr+MVHOtBTZKPsdJgjs3MUHBT2ucHyzVf5gQZsr8ZpTM1PPomfNu3jfh2+EEJDlbwA3OsK0rMopSlw0zn20Up0wZZmXkD7At2OWI5HZjg2Y/ATeYtIu0zcq1hJPjR4NDv0IgW+eIe+K9RK/KP+tHKPxRTFOylYS0HrLqiEN7H96plkgB7PWjOruVgYpDYd/cgMYFTxdr7WYXms/jmBpg1YkXVgXRaK4wzb6TUv+/6QfCGO74lLJ3gfFsMq3WHgY4TNaztkEGTC2FmJq9apgnQeNJEizvCh9Xsv3hzrQ54Lgj6TE8zv1sb/EcQgZ+pw3RmVa21IMBT0nB3CQ4bCa+4/tSZa3DmfKoKgxxfcs2eHDT7GHyqalG65rRq9C3/Mu9rrqARHur1pf0NOCUPd6WRjdrsuwZ3nM2nk0kZX0ktaFNh731TSqAVZrheSsB8WbTB/zFZjBRsp91Kmd/7DLxacJC0K3mAhQA/hZLJ2qHhaAU/DYjD2k3pSpzb20dDh7mnq2BaARZWMzaqvr0JLHJQKMGI4PN4hHkTUrCmhpfLZQMWK5hXgr/68NY3Dz4/FCZqONLlI1hBVphftEASmX6iWm4VyxECXAVU5Y38Wcqv0L+pVzyzCWakmfHX3IMtwYYNsG4PrNkTnmVc0gkfbA1dFa9eSzveCg0j4WgNxyhY11I1K1XrlQJ8udLOrvUTAuzHY4thrW7YxfyCA6Ncc+6q9NXwdA4uVXCj60kFbPKJ2Ubpge+Xwv1kH5IHlErwzZH23TqKzO1CgBVAWSbCkzQcEpQRNJvZXjQFDwY1SiYWwOwTSqsDgfIXwwnBp/wOjpXG7M/qfQtwXR2wWD9UCLAKFy2Cr3TDQYQ1jM2hah/aMgXXK7ioeUUJFmnVIGBq1jTA4cH1RJOTcrVqxlre98QCmLOyXjchwCrdOyWI6u0O25fCmxc2Z++oyjINr5lqdR1woQ/7cFUZX2PnIhxhzvPh/j5fXwQ6zc2UkXB5jbA4NUwIsEZ3leu/muMdpkjTFjWKsXHY88GZvakdcLMQ4crdU75JdLqCn3h0gN4cP1pkruTZlGAj7gdECLBOhMvFbg4kTBUU1dWvOrWqe7iJxJrbJGePgGfqluaRgEWwaXd4w+XffTFLh4fmJy+E21w/d1mtT4QAq0VsFf2fgRFNYS48k43aC1wV9Gi4ehBM29zRanURuXeFmDb4FnCrK7U8BrJdwYs9cMLIkNAz2bx4UG3xnMlGPRTGAeaN0KdKWubw9IylcNfXYakteCepRysUVJgR+V+TnDemuV5VcG4nXDYaTP3fzDYhwBhcX94fNBfepwJrxjBFKiLNbY1umDQKHk5FgRQnLcK1caf7j9s8Bf/QMKcRLtoCno57PhfkCwHG6CVT6yEHk1RYrc6lzB/9oWLKdN4cpHCa1QJPxQifNaKLYSbkuwGbCxcNhJep2HdSAX4/UMcs/V0IMAFvt8PYUrg/6NNn8Yps1O/B+duAqdXrbSvCI8B/umigqaLXACfOhzuzFuCoxF9CgJWgFFGfIuwOnODTtTrgDXMWLge3+HitbgFsnYPHHUxmYO5XXzIEzh9mSbmEiB6jSMUIAUYK58DCzBkyU6lOwX97dJvEhL3vDW5CnJ6HxwZGwZ0eRZgUXG070x2N6VBwQzdcNEpu9gzoNiHAASGKp8NzsElneIvA1NH15QpVKahte0tDWL84tWzUUXmsPUzVdZq2t1RlX1PNQebfa5jcAn+JCgPf5QgBpuhhkyOvHX6sw8/ilhRViXrqFxWc2Qg3pZl2q16jFsP6nWElQXO0yeY2T8EJC2Cu7PNV5yYhwOrwiqW3qQbWDvuVs1FvHMsk6Qh9LiD5qS1wQzrT1zfrwjBh6xxl6a0PBe0arhoClw+D9+qzNpujhQAt8rt54HJhVpG9fDo2o+GuJpi0BbxgEdwDqrIYvtgFd1mY20+rsP7yrDwsGtAQ6bBKBIQALVwc86G5ES4lvHrlSzPnBy/MwUmuRItNPZMczNawhy1OMPV5e2DSlrDAFp1c1kMI0FLvlfcHv2cikBpGW6pmLWq9reH0brjUhWtYC2HfHFxTi6ERj3k8B5NHwENpFLeK2BZrxAkBWuOKlSvyDKzeBMcS5p5b3XJ1q1FvblD68iTbj820w8YlMCnC0roFskjDRd1w82h4sxqApe/ACAgBDoyRFT2ehX/pCYu4m2p1vmSjNmm3ftsDp42y+PxgMbzy95WEF4K5XXOtiaZnKT9fwhj7kbYpadDSnK8IO5gi7hq+mqYeUc6t4U2TjXoInGfjrYVWmKng6ChtHkDWHRpObIFignNmcip5A3TQ7Q9B40bwo/L5QR+qj/V64RUNM4HZLWBKeFrRWmFzFUaDC3EpFGwHlDQ8oeCMBfAbOc8XF9KflCsEmAzOscyyIKyta47NHOpLEffgXnEP8McGmDQCnowFuBqEtsEepfBQ9Do1DO93iIZXVFhj5uY8vB21fJG3agSEAD1YHcWwcLWp4GXOD/rk01ub4Kjh8JoNbmqDAzRcFqEuHyq4rAumbwnvRihXRFWIgE8PS4Um+9mt/Fn8jeBWySmupm5ahWde0mGFsktb4J00vVc+mjTdJLOoU49OU5RewbRmeLFOWTK8DgSEAOsAz8ahpkpZKxyWC+8Xf85GHWvU6VngyAL8psbxkQwzJNgW/sjsTfjmXXEzNVZMwgIFF4+Ae+Q8X8XQxdZRCDA2aNMVXP4sNkdmfgGsn642kc1u3pzuLsH5LfDHyKTWIKhcDXDfcllUcz5zpc9SObhhjvuYOhzTFdzhyk2YGmBxbogQoHMuq07hInxdwekavl3dSHt7a3jXvEUthRlpF2nS0PQsbNcDuwWR4jEmtVlQYrJbw3saXlAwvwHu8iE9mL0ronbNhABrx86ZkeazuA22I4wYO5nafRVg/4+CC5bDJWNSzoZiMP4zrPF5GNwDpXehc01YbtNxHmcWbIKKCgEmCHbaU5n8dt2wv4bjPKtW91AJTm2BuWljLPO7hYAQoFv+ikTbv8H6Q+C44AaGqV/sSzZqg8295RsUUvIxkpXivxAhQP99vFILy5/FPzBJFhRsa6KbnkBhbpNcNgSu3BSWeGKTmBETAr4s+pjgyYbYdhinYYaGYR5Z/LK5KlgIz9uZehnSBIHPICAEKItiBQLlYzMHlc+3fcEHWMy5uxLcZwIl+TCPnjmHJ00Q+BgBIUBZDJ9AYCGMzoXX6n7oETRdpnaGORwud2098moEpggBRgCijyIWwvdzYQqobX25X6zgrRJMXwY3bg3/66PfxKbqEBACrA6vTPU22agHwS+BiRo28Mh4k3bq1Dzch+wPeuTW6k0RAqwes8yNMETYCCco+Dmwni8AKHjIJDYowBO+2CR2VIeAEGB1eGW6dxG+A0wqfxbnfADDZKM2mWYGweW2pN3yAVdXbBACdMVTFulZhB8rmKnhixapVa8qJtXWmUtg1lgwJTylZQABIcAMODkqE1thUA52DC76Hx4UM9oG8OItsA8+WofHZaYugceECKNaOfbKEQK01zdWadYGo4CTNIyzSrGYlFFwew8cORJeiWkKEWsBAkKAFjjBZhVehnU/DM8F/gxoslnXGHRbpmHWIDhvOLwVg3wRmTICQoApO8DW6Z+Fz/fATzQcrGBTW/VMSK/ncnCUZHFOCO0EpxECTBBsF6YqJ0nYtlx72OzzyRoJHWfuEz8R4DNtDvx2CpRc8Kfo2D8CsrhlhXyMQDnN+wxgJ4FllQiYa3Xn5+B0uVbn/ioRAnTfh3VbMB82bQyTpE7wqL5w3bj0J0CFV+kuHATnbgb/iHUyER4bAkKAsUFrv2AT4OiAvXV43S1vv8ZWaviX4Nt4SgEeMAWQrNRQlFolAkKAGV0cRRgZlM28APiW7PNFsghMlbrDC/C3SKSJkEQQEAJMBGZ7JpkPzY0wi7BIkrRoEXgfuH4wTJNs1NECG5c0IcC4kLVMbitsHuxbHUz4uTvIMvV8U+cdBcc2wxWSjdpu1woB2u2furVrhTVyMEGHBdILdQsUAZUiUFLwZ1NqYCHcM16yUVeKW6L9hAAThTu5yaZAbhx8S8GZCr6a3MwyU18EzBtgkDTiii6YNhpeE3TsQkAI0C5/RKKNCXBoOC0H22toiESoCKkXgbeB63JwQTO8WK8wGR8NAkKA0eBohRSzzwfsp8LP3XWtUEqU+DQCC80tmzzcIdCkj4AQYPo+qFsDDY3tsF85TZWc56sb0UQEmGMzpxTgd4nMJpOsFAEhQMcXRmtYtOhsBaMdNyVz6gc/WO/l4BbgjDy8lDkALDBYCNACJ9SiQjt8Q8NkDd/zMDFpf5As1/CSguZacLNxjIJ/aDi9Ay7YGjps1NFXnYQAHfPsAtisAQ4o39td3zH161ZXQ0cD/LeGDTUcRrjv6UPrzTZz8VC4bRgs98Eo220QArTdQ2X9TDp6DXuYA7Y+vf1UC78hwBzskocHFsP6nTBdwf6evQXf2wATR0B7tfhI/+oQEAKsDq9UepeLlJ8BfCUVBSyatC8B9qrVBtuYxK3AzsF+2mCL1K1HlaXm/GAOLsvDonoEydhVIyAEaPHqWADbNIRpqnaQhAWho1ZGgOX/31CEXRWYfIZfttitVamm4XkV5h68Sq7VVQVdRZ2FACuCKdlOC+FLCg4F9lawYbKz2z3bqgiwV+t5MHQoHFK+8+wNEQILgod1ygK4S67VRbdGhQCjw7JuSYthtS74iTkfFhTr3qhugR4KGIgAe00up/sy5Tv38aiYkwmMXK3gXPksjmZxCwFGg2PdUtpgxxKcIuf5+oeyUgLsQ4RbKThNw/frdpI9AjqBi3vgjFGwxB613NNECDBlnxXh6+XKa+M9elOJDdVqCdAoMg/WHgp7miuCGraMTbmEBWt40uwPvgf3bwPLEp7ei+mEAFNy41OwzmpwPOEnr3zuVuiHWgiwV/SrMOR9OAqYDKxW4ZQudHu4BJNGwpMuKGuTjkKACXtjHjStDvuZfT4N3hxkNte6gr2pdeKGsx4C/NRn8XEl2D6IGg+NW+eE5K/YH2yA8+X8YOWICwFWjlVdPU1aqmdhB7NvozwqQKThNQXna/hIwXl1gVTB4CgIsHeaNvihuYJGWB/Fl/YOcGIeZivo9sWouOwQAowL2T5yzT4fcGBwlGFX/Hnj+AC4tgdmj4L5xTDV/sVxwxklARpdb4WGUWEmnYnA8Lj1T0q+gheDH6XjNNzZAiZoIm0lCAgBxrgsnoC11oYjdUh+vnzumlTvj+fg5C3gwd7Dua4SYJ+3wX8twckK9vBlf7DsmxuDa4LT5NjMyh90IcAYCFBDri1MSmo2278QwxSpiNTwQg4mNsOvP10D13UC7EOEW5g6v8BuQGMqQEc/qXkDNDdJzpS0W58EVwgwwsVWPshsNtZPDj49vMnPFyQbeE3D1TmY2Qym9ONnmi8EaAwz+7VtMAE4NihzuVmESyRtUUWz57kW3L6JHJtZ4QshwIiWZBv8G3CMhh8CQyISm7aYj4J9sV+VI4vP9KeMTwTYa6f5QeuEgxScAKyXtjMinH9BwPMnF+DOCGU6KUoIsE63mfN8g+AIk6bKo3q7Jjfdn8w+XzM8VAlEPhJgr93PQnMJTtJ+ZZvpVHCjhuML8D+V+NjHPkKANXq1/Jl0iIm0KdigRjE2Dns2B8eMgHs+vc+XtTfAT9tbTrt1ITDGRsfVqJPZH5zRBNOHg3njz1QTAqzS3S/C4A74voIjgf/0aBvBpF26shuuquV+qc9vgH2XiPnhK8LO5n6xT8dmgBdzcEoD3JglIhQCrIIA22FE8ACcUoIdPLpBUAoOAt+mYWoLFKuA4xNds0KAvUbPh3Ub4aTy+c5BteJm4bh7NZzYAk9bqFvkKgkBVgCpWewNMFmFeeaaKhjiSpd5OTi8GR6tV+GsEWAvXs/B5p3h/u9evmSjVrCsBPc0welbeE6EQoD9PPnZEet5AAARG0lEQVSLYa2u8N7uiZ5FAf9mjkPMCYpzTwHzBlh3yyoB9gLXCuODPVPzRthSN5iWCChfczx9Ccwe6+m1OiHAlSw2k7BgaJiG/qAgGvodS9ZjFGq8EtxIuagLbhwNr0UhsFdG1gnQ4PAQDN4gLFxlfjCHRYlvyrIWmR/MVrjet2zUQoCfWlnzYdMGmKrCmwC+pEwyiQpuL8FpLdAax8MkBPhPVBfDZl3h26BJdebLM2aOzTxQguPiWkNxrMuBZPrinIHsHPDvreFBV3Pg9RceBTiM3b9TcFwe/jogCHV0EAL8LHgLIN8QRot3qgNa24aaLZOru+D40fCmbcpVq0/mCbANPleCPXMwWft1nm++hnMKcF015/mqXUDyCdw/YuXrkd8xpweUR+cHVViz+OISXN0CJjOQky2zBGjSII2EHYEjgG866b2VK23ywZ07CK7ZHF5Nyi55A+wfaVPYXsEkc10SWCMpvyQwz9MKDs/DHxKYK/IpMkmArbC5SVhgyk5Gjmh6Ajs1zDEpnUbB80mrIQRYGeJtsEUpvF/8U2D1ykZZ36sjiH7PUXBB3FstUSORKQI0tziWw5nAARoGRw1mivJ+HyQKndQCT6WlgxBgdcgvhB1zMB2/ijQtUTBrCJw/DEyKfutbZghwAWzSAHOAr1nvlQoVNPswGq5ZE85PO72REGCFTuvTrfxZvDNhNmqTTciLpuAFsw3TCVeNhg9tNioTBDgfmhvhXl9yu2noUnBOOU3V6zYsMCHA2r3wDHxxEBykw/1oX45emYxCvwmSyk4vwBO1oxPvSO8JsAg7aLg+KNizbrxQxi/dRHM13NoEE4dHfJC5Xu2FAOtFEMxXSiOcqMNkrL5kozbA3NwNU7cMI8dWNa8J8Fn4ag/cDmxiFerVK9MD3G8CN7ZuMgsBVu/UlY0wt5DWgP8qhdmG/iMaqVZIWWyCJF1ww5bwrhUaeXRKfaV4toaRqXG2gF2jHvM0nNcAd60qHX2NciMdJgQYKZwmLb9qh301nApsHK309KRpaG+E40bAr9PT4p8ze/sGuBjW74SXHL7V8Q/CX8wLXDhxLwQYz+NsUrCV4DBgd18ScpT3sG9TcGEzPN5bWTAeBPuX6i0BtoUpzKemAWq9c2q4TMFUl1KVCwHW6/X+x5va0iYJq4ax8c6UnPSgjMTyUlhL+uS0bpN4SYDmXq8Kz8R9KTl31j1Tj4aHSzB9FDxct7SEBQgBxg94Eb4bnBu8w7ObJAa4V00qsUa4YzgsjR9Jzz+BF8FXulM8FFyDA58NDmafsQzu3BrMp69zTQgwPpeZ84LA2QoOjm8WKyTPLWcm/2NS2nj5BliE7YH7kgKxjnneNZGxTphh+4HRgWwUAhwIodr+Xs4oY04y5GuT4OSoOzVMSyItv68EuE+QkPJai12vNVwUpNc/tQXesFjPilUTAqwYqoo7tsKhKry66dO1zYrsL2ejPr8JrhkOb1U0qIZOvhLgL02qnhrwiHWIhm4F92m4oAAPJZGmKlaD+ggXAowOaZOiTcMtwLbRSXVWkqlZfGoeLo4jWuwlAbbCzxVcapnLzZvepA64fWsw2TO8akKA0bizFbbNhQXLfao1XS84Jgnr3T1hpqP59QrrO95XAtxNwa1RAlWrrCBLiyG7s5bBmT4SXy8uQoC1rpB/jmuFCzIQ6KgHKHMj6ugCnFuPEO8JsAhfVmAyIq8VFVA1yHlfw40NMK0Z/l7DeKeGCAHW7q6MBjpqBewjs3++DE6M4oXC1zdAk33X7KEkXouhvE9xj4YL8zDXp32+/lasEGBtz3MbHKxhZhYDHbUhFo4yzxdwVAt01iPHSwI0gLTDXiW4oR5wahj7kqn9MAh+NRw+qmG8s0OEAKtznQl0ADdo+EF1I6V3HwRuzYdlSGuube0tAS6ADRsSOmKiYJnJe9YJ57l+nq/Wx0sIsHLkJNBROVYD9VSwaz68HVNT85YADRpFmAxMizHrjdnnuzvIYDllc3iuJg94MkgIcGBHljNAzwAOjXFNDqyIRz0UPNoIO9d6VtBrAiyT4BXBXUNTgCayVk5M+lAJZr4Fc8dCd2TCHRUkBNi/44owHLgrYzc6klrNRxbgnFom854AH4LGDcNaIJEERBS8GPx6T83bfdOklrVQ1xghwFXDV4SDzFEoCXTUtcT6G/xcBxS2hq5qZ/CeAA0g5eLUTwKjqgWoT3+TpGBqB1wWRfi9Dj2sHCoE+Fm3OBzoeF/BGiYpq5WL7VNKmbO2wc2Z/Eh4pVp9nTCwWqNW1v9FWKcDppUzRH+hCpnmBsed5mpdARZWMS5TXYUAP+nuNviehuuADV1aCBpua4D9emA7k5BXuXEjxUSBxxbgkWqxzgwB9gJThK0U7KbDfcG1FDQGR1ca+gBnwDSv0n/X8FsF1+ThL/WE2qt1iov9hQBDr5maHkPDBAaHOxbo+EDBIXm4pnf9lU9S7K/gUMuv5pln9keFGjJAZY4Ae51rSK8N8hq+ESQo+GpQ2b4FMBevTYruP5Xgr/UesnSRyGrVWQhwxakDE+gwqavq2Wqp1QX1jHuqEcZtEdbz/UxbBPnucA/TpJmzsZUU7J2Hm6pVLrME2BcoQ4ZPw5rL4KNtwjN90qpEIOsEWLb/bGBIldCl2d3crT19CUwd6CSDeUbaYdsSTFL2ZanROTiwuYYEKEKAaS4/j+bOKgE6HOh4XcH4PDxWzTKcD+s2ws+AY7Gn1rYhwJ82w9XV2GL6CgFWi5j0XykCWSTAInxTwRzL98dW5q87mmBCPfU3WmEjFe5zHhik618z5cdCKxibhz9Uq4cQYLWISf/ME6AJdAyBMxQc4dhLhCk4dHABro9iGZtjMm3wNQXHa9gxCpm1yFDwVicMq+UaqhBgLYjLmM8gkJU3QFcDHQqe1LBbAV6OY/m2wfc1mGt+W8Yhvz+ZGua0wPha5hUCrAU1GZNJAmyFXyiY5VqgQ8P0ApyiwAQ9YmvtsLGGfUtwoIIvxjbRJwUvU7B7Hu6pZT4hwFpQkzGZIsCnYJ3BcJODqateLsFuI8HcgkqstcOwUlj0yxymjrvd+RLssX2N6eeEAON2T0bk+/oJbAIdQQIDk1x3I8dcaXIN/rIFPkhD71uhYRT8hPAe9FZBmctcDHo8txpsvVkdtbSFAGPwShZF+kaAJtCxOpym4SjXAh0KJtSTIy/K9fsiDO6AnwVEMwVYLyrZAbkvUbBTAZ6oR6YQYD3oydiPEfCJAF0NdACPNcD4EfC6bUvTnB9sgImGnCN4m/4wyAP43Tw8Xq+dQoD1IijjVyDgCwG2wQE6zC031CHXmnyU0/Jwqu131lthTC68W7wnMKgGjBeX4JCR8EANYz8zRAgwChRFhvMEaAIdg+A6leJ5thqXUSqBjhp17fvFMDJIOnJCOVCy9kDyNDyfg1+9C2dEeV1VCHAg5OXvFSHg8hugw4GOazUcnFago6KF0U8nk6ezE0ab6HoOtlOwjobVNDSpMGjSpeB5k6KrGx7YchXJGurRQwiwHvRkrNN7gOXUVaeaYtsS6Eh/MZubJfNh6GAYkgO1ObwT99lFIcD0/e6FBq69AS6CTbvh1w6mrrI20OHiQhYCdNFrFursEgG2wc80nOtYoMN8Dp7cDGfaHuiwcHmuUiUhQJe8ZbGuLhCgq4EOHe59jWuBpyxeAk6qJgTopNvsU9p2AnQ40HFlBxwqhbjiWfNCgPHgmjmpthJguSxqb6AjjutYcfn6PQX71HrJPy6lfJMrBOibR1Oyx0YCLAc6bgsKko9JCZZap31Ew+4tYCoSSosRASHAGMHNkmjbCLAYVv07D1jdIT+YaoST8zAzCHhoh/R2VlUhQGddZ5fithCgq4EOYLGCXfOwwC7P+q2NEKDf/k3MOhsIsA220WFZSqdSV2mYPRQOGwbLE3OYTLQCASFAWQiRIJAmAZpAxwZhxuNJQVIACXRE4tFsCBECzIafY7cyLQKUQEfsrvV6AiFAr92bnHFpEGAr7KfgfMcCHZ2milozzJJAR3Lrc1UzCQGm7wMvNEiSABXsrWGCg6mrJNBh2WoXArTMIa6qkxQBEgYKPgQ+5xhWlwyBIyXQYZfXhADt8oez2iRIgK5h9LaGvVvgftcUz4K+QoBZ8HICNgoBrhTkuV2w52h4MwEXyBQ1ICAEWANoMuSzCAgBfgKTj4BjCuFNFGkWIyAEaLFzXFJNCPBjb7X1wK6joM0l/2VVVyHArHo+YruFAFfcKrigBEe3QGfE8Iq4mBAQAowJ2KyJzTIBKnizBHu2wNys+d11e4UAXfegJfpnmADnKtg9D29b4gpRowoEhACrAEu6rhqBDBLgcgUT83ChrAt3ERACdNd3VmmeMQKUQIdVq692ZYQAa8dORvZBICMEaJKUnqfhGAl0+LH8hQD98GPqVvhOgBLoSH2JxaKAEGAssGZPqM8EqMJrbHtLoMO/dS0E6J9PU7HIUwJcBhxVgEtSAVUmjR0BIcDYIc7GBB4SoKnNsWsBFmfDg9m0Uggwm36P3GrPCHBmIUyvL81zBIQAPXdwUuZ5QoCmDu/uBXgkKdxknnQREAJMF39vZnedADXc0wn7jIH3vHGKGDIgAkKAA0IkHSpBwGEC7FBweB4ur8RO6eMXAkKAfvkzNWscJcAFjbDTFvBCasDJxKkiIASYKvz+TO4YAZaCSnIzO+DEraHLHy+IJdUiIARYLWLSf6UIOESAEuiQNfwxAkKAshgiQcAFApRARySu9kqIEKBX7kzPmCJMBGakp0G/M38AHF6AKy3VT9RKCQEhwJSA923aIpxhCgFZaNdTjTBOAh0WesYClYQALXCCDyq0wVkajrLIlpKCM96Ak8dCt0V6iSoWISAEaJEzXFalDY7XcKolNryuYHweHrNEH1HDUgSEAC11jGtqtcO4EsyxQO87mmDCcFhqgS6iguUICAFa7iBX1GuFFgULU9T3feDgAlyXog4ytWMICAE65jBb1W2FQcA7ClZPWkcFT2rYrQAvJz23zOc2AkKAbvvPKu3bYI6GcQkq1QOcloepCsx/SxMEqkJACLAquKRzfwg8A8Oa4HkgiXX1cgl2GwlPilcEgVoRSGKh1qqbjHMQgSLcC+wQs+p3aNi3BcwBZ2mCQM0ICAHWDJ0MXBkCz8PaH4G5bzs4BoRMZPfnBbg5BtkiMoMICAFm0Olxm9wO/7cEv4/yU1jDUwp2lkBH3N7LlnwhwGz5OzFri3AYcG4UEyqY3QwHSqAjCjRFRl8EhABlPcSGwELYMQc3Bbn3aj0aYz55d5QaHbG5KPOChQAzvwTiBaAV1lPh4eRqAiM9Ci7Kh2+R0gSB2BAQAowNWhHcF4EijCx/En8NWGMl6JgszeaN7w/lGh0vCYKCQNwICAHGjbDI/wwC5tpcDoYpWEfDEOB3eRDCk7WSOAJCgIlDLhMKAoKALQgIAdriCdFDEBAEEkdACDBxyGVCQUAQsAUBIUBbPCF6CAKCQOIICAEmDrlMKAgIArYgIARoiydED0FAEEgcASHAxCGXCQUBQcAWBIQAbfGE6CEICAKJIyAEmDjkMqEgIAjYgoAQoC2eED0EAUEgcQSEABOHXCYUBAQBWxAQArTFE6KHICAIJI6AEGDikMuEgoAgYAsCQoC2eEL0EAQEgcQREAJMHHKZUBAQBGxBQAjQFk+IHoKAIJA4AkKAiUMuEwoCgoAtCAgB2uIJ0UMQEAQSR0AIMHHIZUJBQBCwBQEhQFs8IXoIAoJA4ggIASYOuUwoCAgCtiAgBGiLJ0QPQUAQSBwBIcDEIZcJBQFBwBYEhABt8YToIQgIAokjIASYOOQyoSAgCNiCgBCgLZ4QPQQBQSBxBP4/4+XO5ghkx/EAAAAASUVORK5CYII=;" vertex="1" parent="1">
          <mxGeometry x="230" y="70" width="120" height="120" as="geometry" />
        </mxCell>
        <mxCell id="SIDyf3ixZMDKv1RK9rgy-3" value="" style="shape=image;verticalLabelPosition=bottom;labelBackgroundColor=default;verticalAlign=top;aspect=fixed;imageAspect=0;image=data:image/png,iVBORw0KGgoAAAANSUhEUgAAAUAAAAFACAYAAADNkKWqAAAAAXNSR0IArs4c6QAAIABJREFUeF7tnXmAXEW1xn91eyYLICCLYkj6diAuyHMFXNinu5OQsG8B2QUUEBVRFkVZRBEQkE1UZFEURAICCg+BdM+AIC6AKAgYXpa+nQAiCSBLQjLT97xUdwZCyGR6u3Wru6v+narzVX2n+pu6tZyjcMUx4BhwDHQoA6pDx+2G7RhwDDgGcALoJoFjwDHQsQw4AexY17uBOwYcA04A3RxwDDgGOpYBJ4Ad63o3cMeAY8AJoJsDjgHHQMcy4ASwY13vBu4YcAw4AXRzwDHgGOhYBpwAdqzr3cAdA44BJ4BuDjgGHAMdy4ATwI51vRu4Y8Ax4ATQzQHHgGOgYxlwAmir6/s2XAtZa1Ok9GGEzfDUuoTyEqjZlNQ/KXX9namzltjafdcvx0ArMOAE0DYv3euPZ0B2QdRuID5KjQNGrdDNV4DnURQJmQ3eJWTnPmrbMFx/HAOtwIATQFu8JCj6/OMRzlpJ8FbfQyEEdS0j5OtsHzxry3BcPxwDrcCAE0AbvHT/uDEs8a5FsSNaCOsrf0PxPdLBb+pr7lo5BjqPgXp/bJ3HVFQjLn/yMgPYtCkQIieTLX6/KbacEcdAmzPgBDBOBz+0RTf/ff52UJOa2I0B4FIWBicyjVIT7TpTjoG2Y8AJYJwu7fUPR7gqoi58i0zwPUAisu/MOgZangEngHG5sDe5DXA9Uj7ljaIIoi7l/sLxnKEPSlxxDDgGVmbACWBccyLn34Zil+jh5evcVzzPiWD0TDuE1mPACWAcPuvbeCxh15PAWkbglbqEnsJXUO5z2AjfDqRlGHACGIercqmdUPJ7g9CC8C1eCM51ByMGWXdQ1jPgBDAOF/X6ByBcZx5aLiJTPN48rkN0DNjJgBPAOPySSx6HUhcZh9avRpSciVc8ix70dRlXHAMdzYATwDjc3+ufhXBKHNBlTOECssEJseE7YMeAJQw4AYzDETn/+yhOjAN6OWYJ5Dy84qluJRijFxx07Aw4AYzDBfnUOSAnxwH9FszK2+Fvxt4P1wHHQEwMOAGMg3hbBBBKCBeTCE52K8E4JoLDjJsBJ4BxeMAeAayMXnEa6eA7cVDhMB0DcTLgBDAO9m0TQNFBE9QF3F/4hnsxEseEcJhxMeAEMA7mbRPANzk4kXRwgXsxEsekcJhxMOAEMA7WbRXAcnRpLiATnOxEMI6J4TBNM+AE0DTjGs9WAaxwESKcxP3Bhe5zOI7J4TBNMuAE0CTbg1h2C6A+FBFQ55EuxH9VJw7/OMyOYcAJYByutl0AK5wMgHyLhcXzXQCFOCaJwzTBgBNAEyyvjNEaAljptZKzSRfje7YXh38cZscw4AQwDle3kgBCPyLf5YXiWW4lGMdkcZhRMuAEMEp2h7LdWgJYGYXwHbLBaXHQ5TAdA1Ex4AQwKmZXZ7cVBVCvBOH7LAxOdyvBOCaNw4yCASeAUbA6nM3WFMDBUelsc2cNN0T3d8dAKzDgBDAOL7WyACr6CeUHvFD8plsJxjF5HGYzGXAC2Ew2q7XVygI4OEaRk8kuyzbn8g5X63VXz0IGnADG4ZR2EMBKKK0fcH/wdfdiJI5J5DCbwYATwGawWKuN9hBAPWoBTnIBFGqdAK6+LQw4AYzDE+0jgBURVJztIkvHMZEcZqMMOAFslMF62reXAGoG+kGOJVO80u0J1jMhXJu4GHACGAfz7SeAmsUQ1DfJFM6Jg1KH6RiohwEngPWw1mib9hRAzcpihBPIBD928QQbnSSuvQkGnACaYHlljPYVwMGRnkgmOD8Oah2mY6AWBpwA1sJWs+q2vwC+hlKn0lO4yK0EmzVpnJ0oGHACGAWrw9lsfwGsMKDkONLFS4ajw/3dMRAXA04A42C+UwRQWIQn36aneJ5bCcYx0RzmcAw4ARyOoSj+3ikCOMidqKPJFi6Pgkpn0zHQCANOABthr962nSaA8PryeILfq5cy184xEAUDTgCjYHU4m50ngJqREnA0mUBflnbFMWAFA04A43BDZwqgZnopcKaLJxjHpHOYq2LACWAc86JzBXBQBI91K8E4Jp7DXJkBJ4BxzAmTAqh4COF/gFFxDHUITB1K6zSygdsTtMgpndgVJ4BxeN2kAHpqf0qyBYoT4xjqajAXI/IVMsUr3BUZyzzTQd1xAhiHs80J4AAjR61H/5J+SuFRKHUuMDKOIa8SU+l4gvJ10sXvW9Mn15GOYsAJYBzuNiWAildYe4P12fJhndEN8v6RCJej8OIY9iox9WVp5Btk3YsRa3zSQR1xAhiHs80J4IuMKm3M1vMXvzHMXGo/lFwLdMUx9KEx1TFkCj+xq0+uN+3OgBPAODxsSgDhRRb1j2XXZxa9ZZj51DEglwKJOIY/BOZLeJxAT3CVRX1yXWlzBpwAxuHguAVQjzmX2h9PflUOaG9LEUKUOohM4XpbuuT60d4M2DP525vnt47OBgEs7wmmjkFEh6waYRH9L4E6hUzhxxb1yXWlTRlwAhiHY20RwLIIJg9GqWusWgmWX4zIQWSKN8bhHofZOQw4AYzD1zYJYPlzOPl5lLoIGB0HHUNgvrLs6dwpZIIfWtQn15U2Y8AJYBwOtU0ANQe9/uEIdh1AVK7IHEq2eFMcbnKY7c+AE8A4fGyjAJY/h/0jAR3B2aaV4GI8TqQnuCwOVznM9mbACWAc/rVVAMufw6mjUGLbfbxXQI5we4JxTNb2xnQCGId/bRbAykrwi8tXgjbNj35Qx7nT4TgmbPti2jTB25fllUdmuwCW9wSTpyHq21Y5RfEioo519wSb6JU7JmzIqP6tEPVuRN5ZtqzUIpQ8j1KPQ2oWPfcMNBHRKlNOAONwRysIYPlzOHnc8tPhOFgaCjMEjnLxBBt0SV/qU4RyErAL0L0aa7NAXcarI69i95n6ZL6tihPAONzZKgJY/hxOnQFyehw0rQbzRRQnkA6utqxf9nfnTv89jOBShEnAO6rssABPIep0soXpoKP4tEdxAhiHH1tJAMsrQf8LKGw7hQ1BDiNT/GUcLmxJzL5UipL0ohhfd/8V95AOeupub1lDJ4BxOKTVBNDWlaDwMkq+RaaoAzu4sjoG8uM/AeFvgY0aJ0ouIlP8ajusBJ0ANj4barfQigJYXglauScoCAeTDa6r3REd0qI3tQMi/wus2cQRX08mOKCJ9mIxZZ8ATifBGsm1WYMxiHof8F+6eJbu0nN8er7e+2n9/YdWFUA9RW08HYZXEL5B1l2WfpuKnIHHtv4/UWzWfIVRX2j1a0n2COBd716T7lE7EMr2KPVeQOexSBKyGGQ2Ss1G8QTi3Yv36gP0PP9q8x1qyGIrC2BZBP0TEWwLY/86Ige7Z3MrzeFcMotSMyKa2QOI2pds4daI7Edu1g4B7EsdSij6R7VZFeHa9TWIIvBVMsEtkTMUBUCrC2D5c9g/ZVlA1e9U4a8oGBzK5mugTnCRpZfToxcVXaP0IdGekTlB8Wd6gm1Q6N9ly5V4BfCBsaNZlPg2ii/XkaznNZQ6lXThwpZjvR0EsLIS/CrCBZbx/19E7U+2cKdl/TLfncrqT+/9RRfvUW9JlWR7JhbvNz/AxhHjE8Dbk+9kDfWH5Tlr6x+Jkt/SP/AlJj8zr34jhlu2iwBq2makjseT88GiREsKnXLzqI6/IpPzz0RxavSzW03H41B6Cq9Hj9VchHgEsG/DtQjX/BXIrk0azh8Rb2+yc59rkr1ozbSTAFZWgqcinBktaTVaV2oeCZnMDsGTNbZsn+q9qRsQmRb5gPQqMJRprbj/Go8A5pLfQ6lvNNkxTyCyL9niE02223xz7SaAZRFMHY9YthJEPcg662/zRlrQ5nvSbot5Pw+kjXRS+DPZ4NNGsJoIYl4AZyS3xVP6QuZ6TRzHoKm/UAr3YtK8ZyKw3TyT7SiAmp1c8qTlydebx1WjlkSO69icw/nUX0G2apTCKtuXELYjG/ypyvpWVDMrgPrTV9Z4FGngKc7wtM2GcDKZebOHrxpTjXYVQE1nPnU0iE0JjfRhWYZ04S8xeTs+2Lz/T2Bzgx24iSXdBzF11hKDmA1BmRXA3tTuiER/Z0gfzSv1GXoKhYbYiapxOwtg+XM4eRKocyxKtHQL6WDvtrhEX8uc7PX7EHaspUkT6u7VStfTzApgLvlrlNqvCSQPb0IxFyltR2b+08NXNlyj3QWwshLUydd/ZJjZoeD6oTTeyrkQJUG51DUoOSRKiFXYzpMJsoYx64YzKYCKvJ8ztimrKdEbs553GOm5M+tmKIqGnSCAmje9J4g624rL0sLWrbY/1fDU6x23G3i3Gl6JL0HC7cjOe7Dh/hswYE4AZ2yyDl7pXuAjBsb1JoTiXywlzU7Bs0ZxVwfWKQJY/hy25Nmc4kDSwa+smQMmOlL5zV0PTDEBt8KP7ndstOa+bP74UrO4taOZE8DcJu9DlfSt9Am1d7PRFupBRB1Jdu6jjVpqSvtOEsDHNx/Bv1/V6TYPagp39RpRHEs6sOWTvN5R1N4unzoM5Ge1N2yghRCSUDvTY/9rHHMC2Dv+IxDeEvEJ8Oq89jhhYioT5+h3xPGWThJAzXQ+eTCoX8RKeqdeh+kbswFh97+XvdtOGOVfuIlssK9RzDrAzAngHyZsSH9/n+Fj+ZUp+Qel8EgmzXuoDq6a16STBLAvtREhd4N8qHkE1mFJ1GfIFn5dR8vWb5L3fwp8zvBAFgNZMsEDhnFrgjMngIJHb+oekO1q6mHzKz/KAHswOZjbfNNVWuwUAbz//e9gyes6WILpH9/bHaFkW9LFP1bpofaqFtv2k7qbddbfxeaXOOYEsPwp5OsN2f0tmF1zCNWBTCz8OZa+dIIA3jFhJCOXTge1WywcvxV0MZTe23HXYFbkIO+fsCwi9HnGfRGqHiYW7jGOWyWgWQHMpQ5Fyc+r7FvU1R7HK+1Bz/xZUQO9zX67C6CO9DOKC1HqUOPcrgpQ5C4yxamtGrOuKRzePW4MCU/P9dFNsVetESWXky4eXW110/XMCuB9yXeyRM1HsYbpgQ6B9zRKdiddfNhof9pZAHWMx8WJm4CpRjkdGqwE7NtKrxMi4y3v6+RRX4zM/qoNP43I9mSLcwzjVgVnVgDLn8G25ZlVjzHANCYX/lUVY82o1K4CeNem76JrQK/wDd87W41TFL8hHezTDLe1vI3KXuDvgU2MjUWHyhJOJROcZQyzBiDzAjh98xGs9+rfo0nSUsPIV6yq1POE4Y7GQmm1owBOHzua9bxbUGpynV5ofjOhBPJhY35t/giabzGaUHTD9FM9xsLCx5im/WFXMS+Aevy9/l4Iv7GLCh5BycGki49H3q92E8DKXbNrLPrsHXThhWSCr7VD/tqmzcn8eB9C/bUzqmk2qzGkZEvjW01V9CseASx/Cvv6Vv4xVfTRZJXZDKhdIv8cbicBLEf3XkO/NLDtM/Ml1uz2+dSsl01OoJbAyicvBPUVo31VfId0cJpRzCrA4hNAnf93/eSvQEUfsrsKIlao8jihHB1pkpd2EcDKym860FMbxZHXXoBS+5Au6LfnrqzMwIxNkqiB+1FqnEFyerkvmMgZdmWPi08ANfN9qXUJ5ToLP50KEGYjC6raDgJ4x4S1GTlwBRjIOVHbr/RFQjJMDB6prVmH1c77PwCONzjqheDtRWbuHwxiDgsVrwAOdq/XvxLhiGF7a7bCk3jyeXoiSPfX6gJYued3vVUHHpW58Rye2p8eey/emp3Cq0HLJTdBqcfA4JU0UZeQLRxnDQeAHQKoT4Y3eOWniCUXZ9/00GxEdmv6KWIrC6C+y7lU/RA4wKaJDIQoNZV04S5r+qWfAvYvej8lRuMllqKYSU/hJWv6l0+eDerrBvsT4AUT6GHAIOZqoewQwMEu5v2rgc/aQs7yfsxBwsPIzruvaf1qVQGsfPbeCDKpaVw0x9BChH3JBjrYRnylb8cupJBBOBxkJ+AdbywyKvfhFqP4D8KfEPU7EoWbYhWDO8euR3dCX1Bexxhpofp0bE9QVzFIuwSwvBJ89UcWfg4/AeFuTdsTbEUBzG28PqpLvyT4jLEfS3VAJQinkpl3d3XVI6p1V+oDdMn3lkc8r0ZQlqC4nTC8uKn/XGsdXt6/0ewJvvo2mcIZtXYzqvp2CeCbK0Edude2H5qOI/iZpoT3aTUBfGjMGvy3Wz9vs+eFR2WuvIQwNfZQ933JLKH6XQPvbK/gvuDoWE5I877OG6xTVRjSAnUfI0fuzLYzX4lK1Gqxa2jQtXRJnw7v2EU451JQtj2ifpKuxH7sMEdvHtdfWkkAK1ddLgf2qn/AkbQcwFO7xh51OJ/6DIjeumnsYrFSvyBdMB88onIT407gk5F46e1GdZrSA0kXdG7w2IudAvjmSlC/FrHth/cceLuRmfvXur3XKgJYft6WuBHFznWPNZqGiyipbZhU+Hs05qu02ps6HhF9naRJRc4hU/xGk4xVb8Z8QvsryQTxx4g0t+yt3hdvqXnXu9ckMeoaFHvXaSGqZjMpyRFMqjPAZisIYDmC98C1Fh549COyF9ni7VE5tyq7uXFbgXc/ihFV1a+qkgwg6miygc6hYq5UrsTofDlrGgFVPMuCtVJMiz9pkt0rQO0NLYJdo/TVhm2MOKd6kJdRkq7rfaPtAljhXL/wsCWkVcUrOmhFSXZgYvBk9W6KoGY5unny96CiOA1fgKc+RE9B5/EwV/L+P4APGwMU0rGf2lu/AlzRG/HkNRhuPsxEyRE1h1q3WQB1yCRK96B4z3CDN/p34RlE9ov0iWK1A8r7RwL6LXt3tU1qqqe4ggXBMUajp/SmzkXkpJr62VjlS1kYHG90jKvor/0rwMFOl98Ol4/s92yM96a3no8XTqFn3j+rtmyrAFYOPPSJoNnczcMRp8NaKT5BJvjbcFUj/3tlHj4BvC9CLB02avum3DiotpO9qR0Q0WlrzXwGQxHlTSI9d2a1XYyiXusIoB69oMinfo6SQ6IgowGbswnVsUys8hWCjQKo7/l5XbcibNsAD1E0XQAcQibQgTzjL5WXMPrztIl7f6tamhgOJa8vuY/qvwFBX+A2Uzx1ND0FfcMgttJaAqhpum3MGqwx4ucgtuUcfQbxplSVfN02AdRve0d7P7EwsMELeOFkemJOY7riz/Nef7NlEcT1CjDqMp+N1tqUzQ0eFOT8I1BcGfXAVrB/M5kg1gPO1hPAwZVgn/9LhAMNOqsaqPmI+hzZgr5XNXSxSQAr98BuXXb7codqBmiwzlN46lB6YsrcN9RA88ldoXzpOdqin86FHEw20NGSzJS7xoyjq1t/kppKnPQ0XpCK8zlgawqgng6VKzKXoywTQaGI5+1Geq4+VVt1sUUAK3t+Pzb7FKqq3/IzlMLdY09gv6qu9iYPQZSOfm2gyF9ZZ6CHLZ9ZZACsAtHrP4iwpSG8pYhsFmfCpNYVwIqHFHlfP5uzIdfwinNGX5Y+hMzcVb9PtUEAK5Gc9V0621Z+jyLymaZH4GnWL7ovtT+h6PzWpso2Rg9D8snTl/2sTL3V1bv6u5AO7jBF5so4rS6Ag/cE9Srm4LhIHAJ3DiH7rDIwZ9wCWL7k3P9TYA/LOJtPyG5WBzPNjdsO5RkM6ikXkSmaC1x6zyZbUSrpLZExRuaGUqfQUzg3rpzNrS+A2kv6/0ivr5/N2XZF5kWU2vMtodnLfU2dDXKygQn2Iov6x7LrCp9Qlby9twEZA/jVQwhPkijtFkui+up7CX0bjyXsCgCvlmYN1H0aSp8kM//pBmxU3/TxzUfw71f1S5SDqm/USE11I6H3OSbO+W8jVupt2x4CqEd/x4SRjOzXK0Hb4gnOXv74+y9lJ5Ujq4w4zZAAvoSn3kNP4fUy9h83fRdL+n+BWJS6svIPrEg3e7BDC4Sxr+w9/5/Ri+LCN8kGOtSWmdLr742go/9EX4RnSag0PQbzcq8wqvYRwMGVYN6/zcLH+6+i1C7llWBfaiNCvmJIAF9m4Voblt9czthkHRIDN1gofnORxI5MnKPDjdlfzsBj2+QdhtMBPMXCtT5k7O1s5XBsXsMRbqr1pg62EdM+YHsJ4CDhef8S4EvV8m+oXmHZY9Zv4+nrDaIPHsysVEM+TkKNQDgPZDtDY60ORmQeJW9fJhcqq+NWKbnkcSh1PtBlrMsJtmbH4E9G8Moi7z+M4qNG8FDHkCn8xAzWW1HaUwD1GPP+Lyw8GFkCPLD8FYGZ4A7Cd0A+YXjFUs1cHkC8Laq6OF6NNZN19HtpVcoDY43BKjmbdPEUY3i9/mUIXzCCp/85ZwOT75DfGFb7CmBZBGNIAG1kxtQEEhrcsK+2YwtQsj/pohaR1ix5X7+bNRctR8hxfzDZWNTonP8FFJeZcY7cTaY42QxWp6wA9TgrYYuuAnVYHOQ6zFUwoOinVNqCifMbi6odN7n5lN7HvdBYN/RhgfL2aCgQby2dnZHaEU/0he9kLc3qrDubjdb6oNFnf8s72t4rwEFv5FLXWBhAoc650tLNguUXxA3eo4uIr/JhljwOrBcRwspm9QWqb5E2dBpcue5zA7C1gfG9COFWTUs6VkOHO0MAKwE+r7Aw0VINrmr5qk8zEO7E5BrChtk+5Lz/zWUHId812M17SQc96HfCUZfK3Vq9AjTxwGApovYjW9AXsI2WzhDAN1aC/lUonbPVFcMM/AMlB5Iu6hVT+5Q7Nh7LyC6dl2R9M4OSV/He8R56Hn/VCF6vfwrCWUaw4CzSwWmmX4R0lgD2pUYh4UWIOsqQUx0MzEe8nVvytLca7+VTNxgNI6avNU00dGG8L7kLodKvhqIvihyvd+/N1FkvRw/2JkJnCeDguPO+TmNo5h6eSW/ahiX8HRL7kZ3zlG1da1p/8uMnQahz1pgpSn2VdMHM4cu9/ngGmGNmYDyHpz5FT6FgCK8M05kCOH3zEWzwyiVuJRjpVPsXYWlay5/2DkfRXZu+i66BPwIThqvapL/fwsDrBzP5udeaZG9oMzpWZEnmowyFyRe2Np3kvjMFcNDlOf9a6+IJRj6rjQD8DfGmkp37nBG0OEHKaRr881F81VA3AkK1PxMNBIqtBEbQ+a8N5YiRaWSKOu+PsdLZAlhJcHMpcIwxxtseSD2Gx7S4HrfHQm9fakdCmWHsaZzwRbJB9JeUKyfB+kWVmcgwSp1JunC6SR92tgBqpitOvhY4wCTxbYr1ODKwA9mnF7bp+FY9rMo1q7nAhmbGLT8nUzSzh53zv4rinMhSgL6VMOM5QpwADjogn/wxqKPNTOA2RBF5EFGHxp60PC5qc8k7Db63foBMYOYteW8ygygdAduEuPeRCdImXegEcJDtProIfR0l2cx/VpNejh5rJt30sH3wbPRQliKYvRT9NOlgnJEL0Xf676EbneTrwwaYf5hF/du/JYBvxKBOAFcmuDd1LiKxRKaI2NdRmX8CJdPa7pJzrWz1+lOXJRPSOVZM/KaW4KmN6Cm8VGs366qfT/0OZNe62tbW6B8s6d7e5F1AE86qjYK4a+tYaNunLkTky3F3pQXw++niky0RyTlqMvPjNoXELSAfihqqbF/J/xj7p5MvHxR+0cC4nkS8HpO3B5wADuXV3tTliHzegNNbFeKfKDmMdPHhVh1AU/tdPggZ+UODkYemkgl+39QxDGUs55+CMvIkLqCLKewQPGlkXIaW66bG0lwc/WwuFP2f78jmGm4Da8JTJEo7W5/AyDTVlUjRFxmBFfkK2eLFRrDyvv4N6GAiUZfnlt9xvCdqoEH7bgU4HNPu2dzKDP0RvAPJzNWZ0VxZkYFcaieU6ECpJjLGXcE6GxzLlg/3R+6EvtQehHJL5DjwAqKOJVv4tQGsMoQTwOGYLp8OJ88D9ZXhqnbA32cxoHZlcjwZvKznV+8DivcEihGR91VxD6EcQbYY/VvdylWYXORjgleAU0gHlxk54XYCWINLcx0fSutRRPY08oOrwS1WVa1sm/wHeIeBfs1BwsPIzrsvcqyc/2lUOZdN1GUxirNZEHyPaZSiBnMrwFoY1itB8S9COLaWZm1S93HC0mfaPrBBM5yV958ANmuGqWFslBB1INmCjtocbcn7HwdMHXZdyDobnGzk096tAOuYNx33YkQ9hvT3dNzztjqmRrlJzr8Jxd71Nq+pneJrpIMf1NSmnsp94/6H0NOBXxP1NK+tjfwczzuGnsLrtbWrr7bbA6yHt7yvw6DrcOjtXv6Gpw7sqMAGjXo0519gLjKMnEGm+O1Guzxs+0oa0H8YSZQu8lvWHTiALZ9ZNGy/mlDBCWC9JOZSF6Pa+rK08Uup9brCqna9yS8jysz1FDifTHBi5OO/yx9PF38D1o0cC+5lSfdupl6DOAFsxKP55Nmgvt6ICUvb/glPHe5WfnV4J5/6DMiv6mhZRxP5CZli9KHcKhni/gKMqaOTtTZ5hP5Slp3mv1Brw3rqOwGsh7XBNpVQWhcAxzdixrK2M/EGsvQ8Pd+yfrVGdyoh8vWb4G4DHf4lmeCQyHFy49+NCnUq0/dFjgWzGejamsmz9Wl65MUJYDMozqfOATm5GaZitnEvXulI98KjAS/0JrdB1HWA34CV6pqK3EC2uH91lRuo9cDY9ViUuAvFlg1YqbbpvxkZbsG2856ptkEj9ZwANsLeYNtKAIWzWzyKzKPg7eZeeDQ4IXqTWyBKR2v+ZIOWqml+O5kg+igtf56wNov6f4OQraZTDdZ5GbwPm5qHTgAb9NZbmuf984ATmmnSiC1R99HPIUwxm5HLyNhMg+TGfxglPwTZLnJoxf2kg+hxKhGvfw7sE/mYYAml0oeYNP//DGC5p3BNJbm8J5g6u8U+h2ciid3aOnVlU508jLHcxutD4jpD0aEfJRNEn7Co8sLlEuBzkVMphOWQYtmivlAeeXErwCgozicvbJG3w3/CG5jmDjyaPAnyqekg+zbZ6qrMzSETbBo5zkNbdPPSwu+iRF+5iV4zSupjTCroi9eRl+gHE/kQLAT8Eq0GAAAgAElEQVR4YOxoFieutDzR0myUHEq6qHPautJMBvK+Dh1lIoxagUwwvpldX6WtSkCQr4E6FQzkCA5lOyYW7498XEbU3MQobMSYsck6qNI9KD5qYfdm0V+awk7zZ1nYt9bvkrm94ALpYFOU/myMsAgJ+pJHIOpsYL0IkSqmQ3ZhYqDDikVe3AowKop7/b0QbrL0n4wgXMgapW+x9fzFUVHQsXbzvt4v+5KB8ZsRwEr+bH3h+ixg7cjHJTKRbNFE+C0D3/ORs2UhwJ1j12NE4maEHSzsXaVLwhIUexoLq24tERF0LOdfieKICCy/1aRiLn8IJnBGxCtALYDrJb+GTlwOIyMflyfb0eM+gSPnORKAyrOh3wI6hJDt5TlEfcVkBF7bCWm4f/rEVLgGkWkN2xrewEwywQeGr9ZgDX0I8t/nzzT37NP7JJm5f22w11U1d5/AVdFUZaWy+HX/ysgdsCq7VEW1l5FwFyOBNavoTMtX6Rs7gTChgyFMjXwsin+QDqLfY9aiXkIH/zCTJEx5HyU9V0efibw4AWwWxXelPkBC/ogysEncrD6/aWc+KjyW9LzfNd90h1mc4W+27IPxEkOvJv5EJtg6cobLF6FH/8zI1R5FP3gfIj13ZuTjsnSD3sS4m4vx+1SKbrkZxceaa9igNcWzoPYkXdBRP1ypl4G+1EcJRb+aiP6CsiJHOphYb1erbqefwr02cBNI9FjwMkvVR0y9SnIrwKpnwRAVK5Ey7jIy4Rvt63DthWfxwqPdSnA4olbz97y/NcLvUQZOS5X8lnRxjwZ6W11TfajX1XXnsox3W1XXoKFaz0FpCzLzn27ISpWNnQBWSdQqq/WOfz9heH1Lr/xWHphS8ygxjYmFPzdCTce2zY+bhHhaAKNPjam4jnRwUORcV/7J3wu8P3IsYQ6lrk+7cFiRM90gQN+YDQi79XvFDRu0ZGPz51F8lrSZy6g2ElB3n/L+nsDNdbevpaFSl5MuHF1Lk7rq5sduDAm9NbJxXe1raaT4O0tLGRcQtRbSTNe9a8w4ukZc12KnvbWypBOfH0AmMJEOsda+2Vs/7+sncPopnIGiLiZTiD5ftQ6J383DCO+MflDyB5aM2NWFxI+e6foQ+lLrEuo9P/WJ+gy0VKv/IrIv2eKMlup1nJ3t9U9Byi8moi/CeWSDkyIH0kmRvNLfEUZHjoX6HQOLD2Dyc69Fj2UisoOJUZjCyCU/CGoGykhuBFOjGg6ngHA42aBvuIru70Bv6ieIHGWEC6W+SrpwYeRYJtNiivoFCY5yaTEj92qNAOWVn+jLmckaW7ZD9Vch3JnMPJ0XwpXVMZDz9QHITkZIUrIf6eL0yLFMJkYXuZh1NzzRJUaP3Ks1AFReeNwMRq4B1NAxo1ULiDqGbOFOo6itBabI+zqScfQx+uBFlJpi5N5mX+pThPInI65QcjoLimcxjZIJPHcNZjiW9WmvdP8aITNc1Q74+wsIu5ANzPwYWo1QHQLNK+n7a2sa6HovYeKzTJxTjByrL7UjoZjYAnkF5JvcV7ws8gAPy0lzAri62aOP/yVxW1vd82v811IE+SKZ4m2Nm2ozCzofiBc+tOwQxERKzCsYeP14I4cFudQeKLnFgLdeQOQ4skWdVU8M4LlwWEOSrC9/UrrGUG4HE75uJsZzeGoPetxl6beQmvMPRHFtM4leja0TyQTnG8Hq9Q9HuMoA1nPAZ02GaHMrwFV59a5N30XXwK3Apw04vVUhnkZ5XyA91wVQGPRgzv8himONODRkbyYGZi5c5/1vAt+NfFxK5pFQu7ND8EjkWO4TeAiK/+C/h35+CuxiygktjPM0Su1tZCPedpLy430kvNVQCgTBUx+nx0ziIPK+/j1EnxEOZuOpLD3m0rO6FeCKPyx94FHq1nt+n7L992ZR/3RQ1cM6/nS415+KoL8aTOz/LcHrH0vPMwsinwc6wdeixP+i6IkcC57A69/ByLjcCnAld5YPPLyr3J5fXdN8Nl64Bz3z/llX63ZolE+dYywftA5dtvYGvpG7cnenPkpCbgQmRO4m4SGWdm/L1FlLIsdyArgCxfr6QqJ0O8K2pohvQxx9/WNax74dzvs6es4nDfn1L2QCM18pueRBKHWZkWRI0EcmSBvisAzjPoErkS5+CUaW+CZ9ax5LeBK8/cnOfdQ8eIyIfRuuRbiGTjH6bkO9uJJMYGJPDnL+BSi+amRcwtVkg+iTSa0wmM4WwMrzNr1vY2/2NiMzr4kgiucRdiIT/K2JVu02lff1qkW/kIl+/0+HjBf1ZTKFn0ROSjkhuq/HZeYRgHAC2eCCyMflBBDQKz+V0C883Gdv82fcEyh1eEecDguKvuRZiPpG82lcpcU5dLGPkasi5Vwgo/TKdiMjY1NqD9IFnVHRWOnMFeADY9djUeIGFFljTHce0L8Rb3Lbfw7rcPHdibuBLQy5+BY8dYCRaCl9qY0IRe/tRh/dGgbw1FbGrvYsd1bnCWDlnt9NQPTZtAz9IiyGeRIJj2rrlJs6BD6ezgljqMiXyRQvNQI2I/UpPENBEIS5hOG2TJr3jJGxdaQA6hce3QNXI+xskuQOxyoiMoVsUacPaL+S938AHG9sYCEfZ6KhlxK51KGocoY7E+VmRpcOYuv5i02ADWJ0zgpQL+dLcou75Gxyer2B9RShOoqJhXtiQY8KVJ/+yhqPIAbuyOkxCC9Qej1pJACCxutNnYtI9BGny4EP1CmkC+eizARB6CwBrIjflSi38otKC6qwOxslu5MuPl5F3dao0pv8PKL0aayZhYRwO9lgV0PkKPKp34KYwHsdT3alp5gzNLY3YMw4zvSoVsSrZG/TD/ZdYIM4/VDBnkOojmiLleBDW3Tz3wX60f7mxmhVnEQ6OM8IXn7cpijvVoT/iRxP+A+q9HFTuYBXHE97C+Dd48aQ8HSGrqmRO9EBVMvATJTs3fIrwRnJbfHUfdUOuuF6OlJKKHuTnfdgw7aqMdCbnIaoy4F1q6neUB2Rx8gWP9yQjTobt68AlrPZJ25HuZVfnXMjumaiwx5xAD3F+6MDidhyLvlrlNovYpQ3zQt3srR7D2PvZHtT30bkVEOf97eTMfZp/xaXtacAVp63XWPsBnv1vwKd50AnVkoAH6m+WQM1depExXuBPRqwEkXTJwlL+zFx/mNRGI/U5gx/Mzz0ftWYSHFWNO6pr9BTuNgYXt6/A5hiCO8CMsEJhrDaXADLeRnC2yxMWr6QRDiFkjd2mQjuCRxswOEl1ulfm/+s0cWo/h8gGH1nWcX4/g3e7mTm/rWKuvZU6fVPRfi2odVRZdye2oyewr+MkZD35y9L8L6xETzhSLKBiYjTbxtOe60A9WmviH7eZtfbXmEJyJFkitdxT+r9hPIF4EsGJtdreMG69DCw7Aer6EudY+haQy1DewIlh5AuPlxLo9jqah57k/eA2t5gH55jUf8m7PrMIiOYOhG6KmmxNaEPJYSJceWdNjFAIz7jtjFrMLp7uoVXXZ4iTEx8I3tXOQADXzcUO24B62ww5i1x4/L+r4DPmHFK1Sj/YURiO7ab81TVLeKqWIn8oldH6xjrgpJrSBcPM4aXS56GUnqFa6LMxCvtQs98/ebYeGkPAbxtzAaM7v6lsYTUVbtJPYaog972HtZc8MyFJLs35r0rBJgsr2B8Hd/tmKqHYaSiegyvdDg98x4yAlcvyF2pT9IlOvafqfIqeBlj2wTl/fOuWwzmwL6FNbsP41OzXjZF6Io4rS+A97//HSxdfAVi8ESuOk/NRmQS2eKct1U3J4Avsqh/7Ns+nYQE+dTV5U9Pm4q+6jEQZpg0XycXt7PkU8eA/Mhg53rJBGbCUelB9foHIPxi+UFd9MMUTiMbfCd6oFUjtLYA3pd8J0u43sIw9n9DvM8OGQklbgEcnAu9yZ8g6qi4Jt8QuI8jfM7a5Ou9qeMR0e9/zRTTIaLyvhY/Ewd0mj8B2T3OHNOtK4B6L60kOg3hgWZmYtUoc5DEFLKr2c+yRQDvmDCSkf0/LuditasMvXqOu595/4uAmWgsilms3f8RtjR0+CF49PmzEMYbonkReB8kMzcwhPc2mNYUwMpVl+kgk+IibogF9YOo8LPDvnKwRQAHB5FLXY6Sz9vFJTOBw63LMZJL7oJSt5nhSn2DTOEcM1jL4qL3pT5KKPo03kT8P33G/E96gg+bDoCwIp+tJ4A6mOnriUsRDjA2MaoDmoPIrlWFfbJNACvvWnUochNXc6pjs1LrXxDuQmbe7FoaRVq3N7k5okxkv5uPt9Zm9Dz+aqTjGTRePhxLnQ5yuhG8CsgVZIJY//G2lgBWwg/dWM45YVPR6fyEQ5gYPFlVt2wTwMFO5/3zga9VNQZzlebgyaHWPJvTXx+qVESxdqQUCN8hG5wWKcaKxmdsksQr6aAhpl4ohXjsSzq42dgYVwHUOgJYCWb6Y4S94iRsFdi158S1VQBtviw9oPZmssGXEKubZL3JX0d760AGKHlbManwd2NzPe/r10nmxEjUg4SlPUxHgF6Zz9YQQJ2dfnHidsBoztAqJt9/6C9tw041XuK0VQAHB5zzr0JxeBXjN1llNmFpTyveDlfuAs4A3hEJAcJNzN7gAI56uD8S+6symvO/j+JEY3iiziRbMPm5vcqh2S+A5Xh+I64C2c2Yc6oD0tnrp5IJequrvkIt2wWwb8cuwrmX2HdZmkeWJwQy9yZ2KOfm/e8C36zZ98M3eJpS+AnjK6Oc/wiKjw7fvabUCIGtbEidarcA9qVGEYY3gLJN/GYywBQmB3Prmg62C+Cbe4LXgXWHTc8jsmNVh011OafKRjplZPeoeQjvrLJFldXU4WQKP6uycnOq9Y7/CBLqFzhdzTE4jBVFgQXBBKahoyPFWuwVwNzG60PXNda97RWeJFQHNLQ/0yoCeAYe2yUvA3V0rLN0ZXDRTwzlUGPJgYZeBU5B0KkWmhMWS+Ry1t3wS295ux018XrfV89HZST3R2U0iqtJB1ZEJrJTAMv/XUdfjci0qP1fo/1Z4GUbvrjZKgKoydGXY3v9X1q4EnyGUmnH2J/N9fp7Lbs4rGNPrlXjXFq5+hzW7P6Y8TexlTSxDwCpBvtfXXNhEYqDyAS3VNcg2lr2CWB55Ze4zrrnbcLfwTu0KYm+W0kA3/wc1u9f7QqgoC/Soo4kXfhLtD+TYayXA6Sqa+oMILAYJdMJOXOV78ajHlg+dTSIfg1kqtyLDOxN9umFpgBXh2OXAJZfeJS0M+wK1yTMIVGa3LSQPa0ogJWDES2Cn7Nh4r7RB6UTaks2FvFYkQh9j06VflTjls2jIN9lYfHm2PbDcqk/oGQ7Yz4VOY5sUR+wWVHsEcDy295Q51mYbAUzg53Qe37S5NDtrSiAg3z0pi5G5MtW+UinGVByhBVBVXWyJOUdjJItgQ8B3cu5KqF4npACnvyD0LuHddf/jdH9vpWdNiM1GU/05ecRhvwpeGoMPYV/G8IbFsYOAbw9+U5GK/1f4aBhe2y0ggwgsnXTM3G1sgDqZ3MvP6/Djx1q1BXDgz1KmNj1jcCzw9eProY+WLgn5TPAR0iEHyFUI1EsQuQfSNejVvSxfMNC9BUuk+liZ5EJdH4aa0r8Ajh97GjWT9xkX+pK+b/yf/Io9pdaWQD11C2fDvv6isz+1szkSkf0G91DbbhfZhkvb++O6ZcfugeiLiFbOM4mbuIVQL3nlyjpZD12vTpQzCf0dm7KgceqvN3qAqjHpP9xrdd1kXVRZIRHUN6eDZ/U2/QrbXZfyldf/Ntq3K9stBf60GNaXQ8HGkVeTfv4BPDyLbqZsGC6hekan1mW8DoTaQaudhDAwUmV939q3cGIjiIjOol48YkIfzuta7p3/G6IDifHSGODEO6h9PouTH7uNWOYVQDFI4DTSbB+8nxQX6mijyarLMVTk+kp3BMpaDsJYDmo6tKfgDKXtKca5yhyjCrtxtbzF1dTvWPqVEKf3Wt4709//36dTPFc23iORwDzyYNB6dDbNpVZlEpTjVysbScBLH8O639oKZ1IZ1ebHGpDvDnL+ICc36Mj/xnvl/I+SnruP4zjDgNoXgD7Nh5L2KUjaXzAIjIKwN7GNs/bTQC1Iyunivpz2FQ+iSqnjxxCpqhfsriiV38vLfjVskjM+xglQ9/VXFDanGn2rcbNC2A+9TvLVgpFwsR2Rq8mtKMA6l9U5Qf2O8vSkz7DwOvvs23vyagADYL1+nsj6LzQpu79VZCV+j7pwsmxjNmqFWAl6oS5II/DM/4vlBxk/AJtuwpgeSVIF+L/HLEoWZXwRbKBzoXcuaW8TeHfZ37vj//glbZp2iuqJnvQ7Aow7+v8n99q8hjqM6fUPKTUE0u+iXYWQO2N28aswRpd11sUxuyfLOnekqkrJIivb9a0bqu8vzXwR/MDUNPJFPYzj1sdolkBzKWusSQZ96N46lB6DIYcX9Ef7S6Aeqx6xbGer8OZxZ+2VFhCGG5iPMhodb/B6GuVX+8s+FkMq3LBCz9Bzzwda9DKYk4AK68H9OFH3GHtnyEkW3UCoyjc1gkCWP4c1kmsRl8Zbf6MKh2k1KciedVTJXys1XrH7YZ4Ot9Hwmw/5OdkirblnH4LBeYEsC+1EaHkl60NPmjWCSugicyjS/Zmx3kPxtYHDdwpAqjHWk605P8yhtXHSi7u2NNgHfD0XjAY8aXCvH77/KHYo/QM80M3KIBjJxAm7gI2iUl8BhAmkQ36YsJ/E7aTBFCPeoZ/OB5Xxcz7l8gEP4y5D+bh+1IfIJRHV4hKY6YPwm/IBmav29QxMoMCWF4B6hcW76+jn401EZ7CkwOMn/YO1etOE8CcfxmKLzTmxEZbx5Bro9EuN6N9zv8aCp3v2WTpx1OfiG2PvYaRGhTAckBNLYDb1NC/ZlSdT0nt2lAOj2b0YkUbnSSAfan9COXKJoSMb9AL4WQy8+5u0EhrNc+NfzdKbjT++au4jJ7gSyjEdsLMCaBmIu/rS5jmoj2XExiVdjfyvK0WT3eKAOZSR4FcgjJ88XZlXwghJDYjO+epWtzU8nX1xeeQ61AGgx7ovT+8D7ZKNB7TAqiX4l8zMrGEIt3swQ7BI0bwagHpBAHM+fr6iw4Rv3Yt1ERUV0f42ZyewksR2bfTbBz3boWrydqR8a0ap5gVQFP7ETqeXymxjdHnbdWwPVin3QUwn/osyBXmr10M6YQ8C4PJseXdqGVuNLNu3v8NsFczTQ5j6zkksX0rrbTNCmAlBd8cYFRkThGeLQc2yAZ/igyjUcPtLIB9qcMoycWWrPx0DtpXKKl9mVjQNxA6q+T9G5dFyTZ3EqvkdNLFM1uJZLMCqJnJJU/CU+eU74c1vywkLPUwcf5jzTfdRIvtKoC9/gEIOsyZ4Qu3q/ONuo1MYffyjcROK/nkDaBM5dZegqdSNiU8qsbdUYjQ8Li9/pUIzc0MrygQhoeQnacffNtd2lEAdX5ZkXOtWflVZkCBUmmSdYdgpman2UPHK8kEdqVMrYLneASw8iqkmXcCn8dTk1rh3lHZJ+0mgL3JaYi61vhl29VP8CUotUPHPn8rz7Pkj0EdXYUONFplPkp2Il18vFFDptvHI4B6lH+YsCED/WcgHKMjhtU5cAG5Dek6sZU2XttKAPOpw0AuBNat04cRNVMHkClcH5Hx1jCbTx0DopPZR1sU3yMdfDNakGis1ys8zelNJUrFwQg/ANap0egckIsYWHJ1ywW7bJcVYG9qMqFMt+yzNwQ5mkxRn0J3dpkx9kN4idsAP0IiBJEJtr/5HWr88QrgYK/uHjeGROLzEE4B9bEhP6UUixHmIOo3ZApnoihF6NjoTLeDAOaSB+GpSxDeGR1RNVvWR2sHkQ70hXtXKoEovotwSnRk2B/xZXVjt0MAB3t416bjSPR/pBIxxtscJe8H9TIqfAZR/4fITJQ8EksQ02bOoFYXwFxqJ5ToxOjrNZOWBm0JwsFkA90vV974TY0ZR1f37Ij2Zx/GU/vQU9A5dVqy2CWALUlhHZ1uZQHULzwUPwbeUcfII2win3efvUPQm/d1UqiDmkx+P0qmkC7qEHctW5wAxuG6VhXAXn8qcA3CBnHQNgSmgDqCTOFnFvXJrq7cu8l7GSjdAOjtpcaLsBTkVLLF7zduLF4LTgDj4L8VBTCX3AelrgHWiIOyITGFY8kG0Z90WjXoOjrTN25LxPsdwnvqaL1yk++SCU5tgp3YTTgBjMMFrSaAlZDqOqTVhnHQNQSmPu09zOX8rcEjef/jwHkNpKVYAHIl62x4Gls+3F8DsrVVnQDG4ZpWEsCK+E0HoyGVhvNKiKcOp6egV6Su1MLAHRPWZmT/5cD+tTQD9SAqPJ50MYbMcrX1tJbaTgBrYatZdVtFAPPJfVHqMsSylZ+oA8kWft0sd3Sknd7kFog6DvgksOkq328Li/B4qnzRvad4LUrHVWyv4gQwDn+2ggD2pXYiFB1OyaY9vxAlnyVd1AEXXGkGAzM2SeIN7I5ic8QbD+G6KLUU1BxC7iDx2v/S8/yrzYCy0YYTwDi8YrsAVq66XARWnfZCKIcy0YlfZFO2b8culj45khGjS/QUXo8MxyLDTgDjcIbNAli55Kz3/Gy656evunyBTOEncbjLYbYvA04A4/CtrQKYTx4M6mKw6nmbDpVxBOng6jhc5TDbmwEngHH410YB1IENRPTBgk1RXfSm+1FkAn0FxxXHQNMZcALYdEqrMGibAFb2/C6rIyJPFYOtu0q4LPDFIe5tb938uYZVMOAEsAqSml7FJgHM+1OWXYPQb0XXb/o46zWo01gqdVDHx/Orlz/XrmoGnABWTVUTK9oigLnU/qhy0vI1mzi6Rk2FiBxKtqgjTLviGIiUASeAkdI7hHEbBDCX3AWldAABewIblBOYu0vOcUzJTsV0AhiH5+MWQH3VBbkVZdnzNnfJOY7Z2NGYTgDjcL85AVzIku6NmTpryRvD1CGthKuAjeIY+hCY4bKAt+55m0UO6ZSuOAGMw9PmBPBFFq61EdMeX1oeZm8yg6jbI01MXzufLrBB7Zy5Fk1iwAlgk4isyYwxAZQBwq4NGDN6Mc+9ug+Czt72rpr6Gm1lt/KLll9nfRgGnADGMUWMCSAQqh66ZGNK/BRlUWCD8lUXF88vjunnMN9kwAlgHLPBpACKzMNTGyCMjmOoQ2AOoNiPdHCzRX1yXelABpwAxuF0kwIYx/hWj1lanknsVvu65nrUaQw4AYzD450rgG7PL4755jCHZMAJYByTozMFsATqYPe8LY4J5zCHYsAJYBxzo/ME0AU2iGOeOcxhGXACOCxFEVToLAEcQHkHkp6rg6y64hiwigEngHG4o3MEcABR+5ItuAOPOOaZwxyWASeAw1IUQYWOEEAZQDwnfhFMH2eyeQw4AWwel9Vban8BdCu/6meDqxkjA04A4yC/vQVwCSL7kC3qN8euOAasZsAJYBzuaVcBFJaimEIm6I2DVofpGKiVASeAtTLWjPptKYDy6vI9vzubQZGz4RgwwYATQBMsr4zRbgKoV34J2ZmeYi4OOh2mY6BeBpwA1stcI+3aSQCFl/HUNNKFuxqhxLV1DMTBgBPAOFhvFwEs7/mFu5KZd3ccNDpMx0CjDDgBbJTBetq3gwDqlZ8K93XiV88EcG1sYcAJYByeaH0BXIJSu7vP3jgmj8NsJgNOAJvJZrW2WlsAX0NkD7LuwKNad7t69jLgBDAO37SqAOo9P9TuZAvuqksc88ZhNp0BJ4BNp7QKg60pgDq15lR3ybkK/7oqLcOAE8A4XNVqAigsAbWHW/nFMVkcZpQMOAGMkt2hbLeWALqVXxxzxGEaYcAJoBGaVwJpHQFchKi93covjkniME0w4ATQBMsrY7SGAC5Byc6ki/k4KHKYjgETDDgBNMFy6wngAoRpZIO+OOhxmI4BUww4ATTF9Io4Nq8AFYtBJpIu/jEOahymY8AkA04ATbI9iGWvAC5Awr3IzrsvDlocpmPANANOAE0zrvFsFEC98hNvJzJz/xAHJQ7TMRAHA04A42DdNgEUXkCxK5nggTjocJiOgbgYcAIYB/N2CeAiQrUzEwv3xEGFw3QMxMmAE8A42LdHAF9BqYmkC3+JgwaH6RiImwEngHF4oDd1LiInxQG9AuYiPLUzPW7lF7MfHHyMDDgBjIP8XOpcVIwCKCyCcEey8x6MY/gO0zFgCwNOAOPwRN4/ATgvDmgUrxCyu7vkHAv7DtQyBpwAxuGQGf4BeFwXA/Ri8HYkM/evMWA7SMeAdQw4AYzDJff6H2OAhwGT/L9IqPZyp71xONxh2sqAyR+grRyY71dfal1CeRYYZQS8fMmZrLvnZ4RtB9JCDDgBjMtZvf48hLEG4J8Hbx/3wsMA0w6i5RhwAhiXy3LJn6PUoZHC65VfGE52b3sjZdkZb2EGnADG5by8/3EUtyO8J6IuLCCUPZlYvD8i+86sY6DlGXACGKcLe8fvhoS3RnAY8hoSTnErvzid67BbgQEngHF7Ke//ADi+ad1QPEvo7UR27qNNs+kMOQbalAEngHE7dvrmI1jvlTNQ6mTAa7A7swhLezFx/mMN2nHNHQMdwYATQFvc3OsfgHAxsEEdXQpBnceSrtOZOktncXPFMeAYqIIBJ4BVkGSsSt/YCUjXqSBTEDasAncAuJ0E32eH4M8opIo2ropjwDGwnAEngDZOhXvGbcVA4oso2REYt4pDkgWAPt39X+4LruYMQhuH4frkGLCdASeANnvooS26WfjsRnR3fwJR45BwAV0yk0UjZzJ11ss2d931zTHQCgw4AWwFL7k+OgYcA5Ew4AQwElqdUceAY6AVGHAC2Apecn10DDgGImHACWAktDqjjgHHQCsw4ASwFbzk+ugYcAxEwoATwEhodUYdA46BVmDACWAreMn10THgGIiEASeAkdDqjDoGHAOtwIATwFbwkuujY8AxEAkDTgAjobaLTRYAAAA2SURBVNUZdQw4BlqBASeAreAl10fHgGMgEgacAEZCqzPqGHAMtAIDTgBbwUuuj44Bx0AkDPw/n1/3fPg7Ia0AAAAASUVORK5CYII=;" vertex="1" parent="1">
          <mxGeometry x="382" y="70" width="120" height="120" as="geometry" />
        </mxCell>
        <mxCell id="SIDyf3ixZMDKv1RK9rgy-4" value="" style="shape=image;verticalLabelPosition=bottom;labelBackgroundColor=default;verticalAlign=top;aspect=fixed;imageAspect=0;image=data:image/png,iVBORw0KGgoAAAANSUhEUgAAAPwAAACVCAYAAAB8UJf1AAAAAXNSR0IArs4c6QAAAARnQU1BAACxjwv8YQUAAAAJcEhZcwAAEnQAABJ0Ad5mH3gAAAdeSURBVHhe7dzJa1NtGIbxOCCKoIKoXQiCICgiDiDiWgQRBBVxI7hQKYhTVyq4FXQluHACBbe6cOM8gAhWtFRqsTZT09SmY9om/Q+eL+9pc74kPXmbhNMTk+e64YfaN/W00Mu0aWzo8+fPEolEKhIOh+XXr1/Or17nXn7//u3wOvNSyzUM3g/v25Sq9P34+PGjtLe3S1dXl3P7np4e/MP+/Pnj6O3tdT4eotGoxGIxSSQSMjAwIENDQzI6Oiqh1tZWaWtrq9ilS5c8X17O5cuXHV5n5VR7DYP3ozKVvh/nzp2T8+fPy8WLF53bX7lyBQ0smUxKKpWSkDDGmnomeHNvb+7pCZ6xJp8J3nyabz69J3jGmnwmePN1fjweJ3jGmn0m+O7ubufBWIJnrMlngjffbTGP4BM8Y00+E/zPnz+dT+sJnrEmnwm+s7PTeT4FwTPW5DPBd3R0OF/HEzxjTT4T/I8fP5xnZRI8Y00+E/z379+dB+4InrEmnwn+27dvzgN3BM9Yk88Eb/4jFMGzwBYKharSyDNvv3lUfL6Z2wTxvprgv379OnO92ZcxtqCr5gO70YPPh2yLvpLb+DWCZ4FPU/BmtqCDjN2M4Fng0xa8mVfYQcduRvAs8GkM3qww8HrEbkbw/9DMB0A1GnXVvO2N/H56LR+6EXTsZgTPAh/BEzxTNK3B52M3vxb+PsgRPAt8GoP3Crwe0RM8C3zagreFHXT0BM8Cn6bgKwk6yOgJngU+88FdjUaeefsrCTkf/UKP4BlTNIJnTNEInjFFI3jGFI3gGVM0gmdM0QieMUUjeMYUjeAZUzSCZ0zRCJ4xRSN4xhSN4BlTtKLgp6enBUDzInhAEYIHFCF4QBGCBxQheEARggcUIXhAEYIHFCF4QBGCBxQheEARggcUIXhAEYIHFCF4QBGCBxQheEARggcUIXhAEYIHFCF4QJGi4Gd/ki1jrI57+vSpZ6x+KAreXAhA/QQavNcNAASH4AFFCB5QhOABRQgeUITgAUUIHlCE4IEFVo+Vi9p25geCh3r5yIKSv57tbfE68wPBQ72FjqyU7Xq2Mz8QPNRb6MhK2a5nO/MDwUO9WiLLZjKSPH5ckkePylQs5nmbcmzXs535geChXi2Rmch7Fy2S3lBIouvXy9izZ56382K7nu3MDwQP9WqJLBOPO7HnhRcvlr+trZIdG/O8fSHb9WxnfiB4qFca2fjr15K6etWJuvB2hdzgc/fyiUOH3Hv72LZtMtne7vk6eaXXq/TMDwQP9Uoj69u714k3snq1DN28Kdl0uuj2RmHwmf5+GXn0SCKrVs3c2y9fLsO3bsl0Njvn9YzS61V65geCh3qlkaVfvpTopk0zQZt77S1bZOz586LXKQ3evGyqu1v69u1zXy9x4IDnA3ql16v0zA8ED/W8IjNfi6du3JDwypVu2ImDB2Wio8M9j65dK5Gc7Pi4+3qZ3O/znyEYyVOn3LM8r+tVcuYHgod6tsgy4bAkT550HpQzAYeXLZPBCxckOzgoU4mEZHLyt53IhRTftcuNPbJunYy/eFH09xm269nO/EDwUK+SyMbfv5f4nj1FMY/cvSvZqSn3Nv2HD8/8o5D7Gn4wF1Ym949C4d+RZ7ue7cwPBA/1Ko3MPNlm5N49iba0uOHHd+6U9Js3znn6wwfn3n+yq2vO6xayXc925geCh3rVRpYZGJDY9u1u9ObTffOsu6meHs/bl7Jdz3bmB4KHetVEln71SmI7drixO99/n/0efO+KFZK6fl2yo6Oer5tnu57tzA8ED/Uqicx8mt5/5Igbt3nwLh/86OPHEtu61f1HILpxo4w8eSJZvg8P/HtskWVSKRlsa3MeiMsHnjx2TNKfPrl/Nt+Hz05MyPDt2xJes8Z9ed/+/TLx5cucv9N2PduZHwge6pWLzHkCzoYNbsDx3bsl/fatc+b1xBvn5YmE/D17VnqXLJk5z/06cPp00dN0y11vvjM/EDzUKxfZ3zNnnGgjLS0ycv++TGcy7lm54LOTk5K6dk3CS5fOnM8yT9MdffjQuU2568135geCh3rlIpvq65ORXKTZ4eE5Z5U+tXbkwQP3abrRzZud25W73nxnfiB4qFdLZKXB2/7zjHka7vCdOzLx7p3zZ9v1bGd+IHioV0tkhcHz32OBBlJLZG7ws/gBGECDqCUyJ/jZe3V+xBXQQGqKLPf1efLECed78vwQS6CBLHRkpWzXs535geCh3kJHVsp2PduZHwge6tVjBA/UiQmsHrzeFoIHFCF4QBGCBxQheEARggcUIXhAEYIHFAk0eOdqjLG6LrDgzYUA1J9XrH7gU3pAEYIHFCF4QBGCBxQheEARggcUIXhAEYIHFCF4QBGCBxQheEARggcUIXhAEYIHFCF4QBGCBxQheEARggcUIXhAEYIHFCF4QBGCBxQheEARggcUIXhAEYIHFCF4QBGCBxQheEARggcUIXhAEYIHFCF4QBGCBxQheEARggcUIXhAEYIHFCF4QBGCBxT5P/hO+Q+ZyN50xCoqWgAAAABJRU5ErkJggg==;" vertex="1" parent="1">
          <mxGeometry x="240" y="210" width="252" height="149" as="geometry" />
        </mxCell>
      </root>
    </mxGraphModel>
  </diagram>
</mxfile>
